# xmcd CD database file
#
# Track frame offsets:
#	150
#	2732
#	13321
#	32103
#	48449
#	65655
#	101463
#	103930
#	117886
#	123597
#	215140
#	242262
#
# Disc length: 3301 seconds
#
# Revision: 0
# Processed by: cddbd v1.5.1PL2 Copyright (c) Steve Scherf et al.
# Submitted via: CDex 1.51
#
DISCID=a70ce30c
DTITLE=Cheri Huber - Unconditional Self-Acceptance #2
DYEAR=2005
DGENRE=New Age
TTITLE0=The Socialization Process: Introduction
TTITLE1=The Socialization Process
TTITLE2=Exercise: Investigating Your Emotional Conditioning
TTITLE3=Guilt and Fear
TTITLE4=Conditional Beliefs
TTITLE5=Emotions and Gender
TTITLE6=The Illusion Of Control: Introduction
TTITLE7=Being the Perfect Person
TTITLE8=The Illusion of Control
TTITLE9=Guided Imagery on Control
TTITLE10=Conscious Compassionate Awareness
TTITLE11=This Session's Assignment
EXTD=YEAR: 2005
EXTT0=
EXTT1=
EXTT2=
EXTT3=
EXTT4=
EXTT5=
EXTT6=
EXTT7=
EXTT8=
EXTT9=
EXTT10=
EXTT11=
PLAYORDER=
